<svg xmlns="http://www.w3.org/2000/svg" width="312.057" height="425.054" viewBox="0 0 312.057 425.054">
  <g id="remenber" transform="translate(-130.529 -10)">
    <g id="Grupo_11" data-name="Grupo 11" transform="translate(130.529 9.999)">
      <path id="Caminho_2" data-name="Caminho 2" d="M240.117-501.22c-8.572,1.744-17.145,8.475-21.19,16.7-2.589,5.235-3.881,12.708-3.961,21.847a78.084,78.084,0,0,1-.486,8.8l-.486,3.075-7.441-4.9q-30.328-20.188-46.912-17.362c-27.258,4.567-38.66,38.13-19.814,58.567,14.881,16.2,34.454,14.7,65.108-5.066a59.487,59.487,0,0,1,7.6-4.485c.321,0,.405,1.744.241,3.9-.325,4.4-2.344,51.84-3.154,75.1l-.566,14.7-5.743,2.242c-15.206,6.064-26.933,13.376-35.345,22.016-9.218,9.464-14.4,20.429-16.579,35.3-5.9,39.96,15.692,81.664,63.9,123.116l7.36,6.4.486,9.967c.726,14.868,4.932,25.586,14.075,36.052,4.531,5.153,13.99,11.8,20.384,14.287,10.354,3.986,14.315,4.238,68.343,3.9,45.375-.247,50.873-.416,55.243-1.744a55.915,55.915,0,0,0,35.265-30.071c3.154-6.645,5.5-15.619,5.583-20.854,0-1.414.325-2.824.726-3.075,1.292-.833,9.624-20.767,12.943-30.9,1.7-5.4,4.045-14.2,5.1-19.44,1.7-8.64,1.862-11.546,1.778-30.739a440.187,440.187,0,0,0-3.235-54.412c-3.56-28.991-8.087-42.2-17.8-52.421-7.2-7.642-16.5-11.134-29.767-11.134h-6.55l-1.943-4.567c-2.428-5.73-9.869-14.122-15.933-17.861-6.955-4.32-13.344-5.73-26.207-5.816H330.215l-2.023-4.819c-1.377-3.24-3.8-6.562-7.686-10.553-9.7-10.05-17.149-12.878-33.322-12.878h-9.949v-17.944c0-14.04.241-17.861,1.051-17.527.486.165,4.045,2.325,7.846,4.736,16.1,10.136,30.573,15.784,40.277,15.784,12.618,0,25.236-8.475,30.734-20.6,1.943-4.238,2.183-5.734,2.183-14.287,0-9.056-.16-9.885-2.589-15.12-6.389-13.958-21.836-22.346-35.991-19.77-9.138,1.744-20.624,6.979-34.7,15.866-4.286,2.659-8.007,4.9-8.251,4.9s-.566-5.9-.726-13.125c-.241-12.214-.405-13.29-2.508-17.7-4.531-9.468-12.538-16.035-22.242-18.108A24.432,24.432,0,0,0,240.117-501.22Zm12.7,14.452c7.6,3.322,11.486,10.466,11.486,21.349v5.647H228.149l.405-6.9c.566-11.047,4.366-17.7,11.892-20.355A19.152,19.152,0,0,1,252.815-486.767ZM174.6-457.273c9.383,3.487,33.082,17.2,33.082,19.106,0,2-25.882,16.534-34.779,19.6-14.315,4.9-27.579-3.4-28.876-17.944a21.326,21.326,0,0,1,12.293-21.266C161.821-460.431,166.512-460.349,174.6-457.273Zm159.252-.75c12.859,5.981,16.9,22.346,8.171,33.229-5.743,7.061-14.881,9.386-24.75,6.146-8.733-2.906-34.374-17.445-34.374-19.522,0-1,12.052-8.722,20.95-13.541C318.488-459.685,326.66-461.429,333.855-458.024Zm-69.719,19.6-.241,7.308-18.361.252-18.441.165v-6.9c0-3.821.241-7.226.566-7.478.241-.334,8.653-.581,18.6-.581h18.116Zm.165,82.909c0,60.476,0,61.89,1.617,63.551a6.313,6.313,0,0,0,8.007,1.332c1.377-.746,2.589-1.5,2.669-1.579.16-.082.405-18.69.646-41.287l.405-41.123,7.521-.247c16.013-.5,26.287,5.235,31.95,17.861,1.778,3.9,1.778,4.819,2.183,44.363.405,38.295.486,40.541,1.943,42.2,2.183,2.407,6.875,2.325,9.218-.165,1.778-1.913,1.778-2.242,1.943-38.88l.241-36.885,9.7.082c7.926.082,10.6.5,14.56,2,5.743,2.325,12.052,8.393,14.962,14.539,2.023,4.155,2.023,4.32,2.428,35.141l.405,31.069,1.943,1.579a8.25,8.25,0,0,0,7.766,1.08c3.315-1.332,3.64-3.986,3.64-31.151v-25.838l7.521.334c6.309.247,8.087.664,11.161,2.494,10.354,6.228,14.962,16.7,18.521,42.12,2.508,18.36,3.315,29.16,3.8,53.25.486,24.922,0,30.323-4.206,45.273-2.829,10.05-5.583,15.536-10.19,19.939-4.932,4.736-8.492,6.233-17.065,6.9-7.521.664-9.784,1.826-10.675,5.647-.726,2.824,1.537,6.814,4.045,7.478,1.212.334,5.743.334,10.19.082l8.087-.416-.566,4.65c-2.1,18.941-15.447,34.643-32.6,38.3-5.663,1.245-102.556,1.245-107.733,0-9.463-2.242-20.384-10.219-25.8-18.941a46.125,46.125,0,0,1-6.229-18.278c-.486-4.567-.405-4.9,1.212-5.482,2.589-.833,4.447-5.235,3.4-7.976-.405-1.245-4.932-5.652-10.354-10.054-35.991-29.741-56.856-57.323-64.217-85.155-2.428-9.3-2.994-25.17-1.132-34.391,3.4-17.362,13.589-29.078,33.888-39.045,4.772-2.325,8.817-4.155,8.978-3.986.241.33,1.051,26.749,1.212,37.883,0,4.238.325,5.482,1.778,6.9a6.67,6.67,0,0,0,9.058-.247L222-272.515l.486-38.212c.405-34.4,2.348-91.132,3.48-102.349l.405-4.32H264.3Z" transform="translate(-130.529 502.001)" fill="#707070"/>
    </g>
  </g>
</svg>
